<mxfile host="localhost" modified="2020-05-16T04:14:18.771Z" agent="5.0 (Windows NT 10.0; Win64; x64) AppleWebKit/537.36 (KHTML, like Gecko) Code/1.45.1 Chrome/78.0.3904.130 Electron/7.2.4 Safari/537.36" etag="W6RoQ0igk-wHHDjpd7cn" version="13.0.9">
    <diagram id="wmbIuMuW4cHOYq8GmHM_" name="ページ1">
        <mxGraphModel dx="380" dy="480" grid="1" gridSize="10" guides="1" tooltips="1" connect="1" arrows="1" fold="1" page="1" pageScale="1" pageWidth="850" pageHeight="1100" math="0" shadow="0">
            <root>
                <mxCell id="0"/>
                <mxCell id="1" parent="0"/>
                <mxCell id="0wBqRTbNipXPXMuPEuhV-1" value="" style="rounded=0;html=1;jettySize=auto;orthogonalLoop=1;fontSize=11;endArrow=block;endFill=0;endSize=8;strokeWidth=1;shadow=0;labelBackgroundColor=none;edgeStyle=orthogonalEdgeStyle;" parent="1" source="0wBqRTbNipXPXMuPEuhV-8" target="0wBqRTbNipXPXMuPEuhV-6" edge="1">
                    <mxGeometry relative="1" as="geometry"/>
                </mxCell>
                <mxCell id="0wBqRTbNipXPXMuPEuhV-2" value="Start" style="rounded=1;whiteSpace=wrap;html=1;fontSize=12;glass=0;strokeWidth=1;shadow=0;" parent="1" vertex="1">
                    <mxGeometry x="350" y="20" width="120" height="40" as="geometry"/>
                </mxCell>
                <mxCell id="0wBqRTbNipXPXMuPEuhV-3" value="No" style="edgeStyle=none;rounded=0;orthogonalLoop=1;jettySize=auto;html=1;" parent="1" source="0wBqRTbNipXPXMuPEuhV-6" target="0wBqRTbNipXPXMuPEuhV-12" edge="1">
                    <mxGeometry relative="1" as="geometry"/>
                </mxCell>
                <mxCell id="0wBqRTbNipXPXMuPEuhV-4" value="" style="edgeStyle=none;rounded=0;orthogonalLoop=1;jettySize=auto;html=1;" parent="1" source="0wBqRTbNipXPXMuPEuhV-6" target="0wBqRTbNipXPXMuPEuhV-7" edge="1">
                    <mxGeometry relative="1" as="geometry"/>
                </mxCell>
                <mxCell id="0wBqRTbNipXPXMuPEuhV-5" value="Yes" style="edgeLabel;html=1;align=center;verticalAlign=middle;resizable=0;points=[];" parent="0wBqRTbNipXPXMuPEuhV-4" vertex="1" connectable="0">
                    <mxGeometry x="-0.14" y="9" relative="1" as="geometry">
                        <mxPoint x="-9" as="offset"/>
                    </mxGeometry>
                </mxCell>
                <mxCell id="0wBqRTbNipXPXMuPEuhV-6" value="5????" style="rhombus;whiteSpace=wrap;html=1;shadow=0;fontFamily=Helvetica;fontSize=12;align=center;strokeWidth=1;spacing=6;spacingTop=-4;" parent="1" vertex="1">
                    <mxGeometry x="360" y="170" width="100" height="80" as="geometry"/>
                </mxCell>
                <mxCell id="0wBqRTbNipXPXMuPEuhV-7" value="&lt;div style=&quot;font-family: &amp;#34;consolas&amp;#34; , &amp;#34;courier new&amp;#34; , monospace ; font-size: 14px ; line-height: 19px&quot;&gt;????????5?????&lt;br&gt;&lt;/div&gt;" style="rounded=1;whiteSpace=wrap;html=1;fontSize=12;glass=0;strokeWidth=1;shadow=0;" parent="1" vertex="1">
                    <mxGeometry x="350" y="290" width="120" height="40" as="geometry"/>
                </mxCell>
                <mxCell id="0wBqRTbNipXPXMuPEuhV-8" value="??(y??)???" style="shape=parallelogram;perimeter=parallelogramPerimeter;whiteSpace=wrap;html=1;" parent="1" vertex="1">
                    <mxGeometry x="340" y="90" width="140" height="40" as="geometry"/>
                </mxCell>
                <mxCell id="0wBqRTbNipXPXMuPEuhV-9" value="" style="rounded=0;html=1;jettySize=auto;orthogonalLoop=1;fontSize=11;endArrow=block;endFill=0;endSize=8;strokeWidth=1;shadow=0;labelBackgroundColor=none;edgeStyle=orthogonalEdgeStyle;" parent="1" source="0wBqRTbNipXPXMuPEuhV-2" target="0wBqRTbNipXPXMuPEuhV-8" edge="1">
                    <mxGeometry relative="1" as="geometry">
                        <mxPoint x="410" y="60" as="sourcePoint"/>
                        <mxPoint x="410" y="170" as="targetPoint"/>
                    </mxGeometry>
                </mxCell>
                <mxCell id="0wBqRTbNipXPXMuPEuhV-10" value="" style="edgeStyle=none;rounded=0;orthogonalLoop=1;jettySize=auto;html=1;" parent="1" source="0wBqRTbNipXPXMuPEuhV-13" edge="1">
                    <mxGeometry relative="1" as="geometry">
                        <mxPoint x="565" y="330" as="targetPoint"/>
                    </mxGeometry>
                </mxCell>
                <mxCell id="0wBqRTbNipXPXMuPEuhV-11" value="" style="edgeStyle=none;rounded=0;orthogonalLoop=1;jettySize=auto;html=1;" parent="1" source="0wBqRTbNipXPXMuPEuhV-16" edge="1">
                    <mxGeometry relative="1" as="geometry">
                        <mxPoint x="700" y="210" as="targetPoint"/>
                    </mxGeometry>
                </mxCell>
                <mxCell id="0wBqRTbNipXPXMuPEuhV-12" value="5??10????" style="rhombus;whiteSpace=wrap;html=1;" parent="1" vertex="1">
                    <mxGeometry x="510" y="170" width="110" height="80" as="geometry"/>
                </mxCell>
                <mxCell id="0wBqRTbNipXPXMuPEuhV-13" value="&lt;div style=&quot;font-family: &amp;#34;consolas&amp;#34; , &amp;#34;courier new&amp;#34; , monospace ; font-size: 14px ; line-height: 19px&quot;&gt;&lt;span&gt;???????5??10??&lt;/span&gt;&lt;/div&gt;" style="rounded=1;whiteSpace=wrap;html=1;" parent="1" vertex="1">
                    <mxGeometry x="484" y="290" width="170" height="40" as="geometry"/>
                </mxCell>
                <mxCell id="0wBqRTbNipXPXMuPEuhV-14" value="" style="edgeStyle=none;rounded=0;orthogonalLoop=1;jettySize=auto;html=1;" parent="1" source="0wBqRTbNipXPXMuPEuhV-12" target="0wBqRTbNipXPXMuPEuhV-13" edge="1">
                    <mxGeometry relative="1" as="geometry">
                        <mxPoint x="565" y="250" as="sourcePoint"/>
                        <mxPoint x="565" y="330" as="targetPoint"/>
                    </mxGeometry>
                </mxCell>
                <mxCell id="0wBqRTbNipXPXMuPEuhV-15" value="Yes" style="edgeLabel;html=1;align=center;verticalAlign=middle;resizable=0;points=[];" parent="0wBqRTbNipXPXMuPEuhV-14" vertex="1" connectable="0">
                    <mxGeometry x="-0.14" y="11" relative="1" as="geometry">
                        <mxPoint x="-11" as="offset"/>
                    </mxGeometry>
                </mxCell>
                <mxCell id="0wBqRTbNipXPXMuPEuhV-16" value="&lt;div style=&quot;font-family: &amp;#34;consolas&amp;#34; , &amp;#34;courier new&amp;#34; , monospace ; font-size: 14px ; line-height: 19px&quot;&gt;&lt;span&gt;???????10?????&lt;/span&gt;&lt;/div&gt;" style="rounded=1;whiteSpace=wrap;html=1;" parent="1" vertex="1">
                    <mxGeometry x="670" y="190" width="100" height="40" as="geometry"/>
                </mxCell>
                <mxCell id="0wBqRTbNipXPXMuPEuhV-17" value="" style="edgeStyle=none;rounded=0;orthogonalLoop=1;jettySize=auto;html=1;" parent="1" source="0wBqRTbNipXPXMuPEuhV-12" target="0wBqRTbNipXPXMuPEuhV-16" edge="1">
                    <mxGeometry relative="1" as="geometry">
                        <mxPoint x="620" y="210" as="sourcePoint"/>
                        <mxPoint x="700" y="210" as="targetPoint"/>
                    </mxGeometry>
                </mxCell>
                <mxCell id="0wBqRTbNipXPXMuPEuhV-18" value="No" style="edgeLabel;html=1;align=center;verticalAlign=middle;resizable=0;points=[];" parent="0wBqRTbNipXPXMuPEuhV-17" vertex="1" connectable="0">
                    <mxGeometry x="-0.416" y="7" relative="1" as="geometry">
                        <mxPoint x="5" y="7" as="offset"/>
                    </mxGeometry>
                </mxCell>
                <mxCell id="0wBqRTbNipXPXMuPEuhV-37" value="" style="rounded=0;html=1;jettySize=auto;orthogonalLoop=1;fontSize=11;endArrow=block;endFill=0;endSize=8;strokeWidth=1;shadow=0;labelBackgroundColor=none;edgeStyle=orthogonalEdgeStyle;" parent="1" source="0wBqRTbNipXPXMuPEuhV-44" target="0wBqRTbNipXPXMuPEuhV-42" edge="1">
                    <mxGeometry relative="1" as="geometry"/>
                </mxCell>
                <mxCell id="0wBqRTbNipXPXMuPEuhV-38" value="Start" style="rounded=1;whiteSpace=wrap;html=1;fontSize=12;glass=0;strokeWidth=1;shadow=0;" parent="1" vertex="1">
                    <mxGeometry x="20" y="20" width="120" height="40" as="geometry"/>
                </mxCell>
                <mxCell id="0wBqRTbNipXPXMuPEuhV-39" value="No" style="edgeStyle=none;rounded=0;orthogonalLoop=1;jettySize=auto;html=1;" parent="1" source="0wBqRTbNipXPXMuPEuhV-42" edge="1">
                    <mxGeometry relative="1" as="geometry">
                        <mxPoint x="180" y="210" as="targetPoint"/>
                    </mxGeometry>
                </mxCell>
                <mxCell id="0wBqRTbNipXPXMuPEuhV-40" value="" style="edgeStyle=none;rounded=0;orthogonalLoop=1;jettySize=auto;html=1;" parent="1" source="0wBqRTbNipXPXMuPEuhV-42" target="0wBqRTbNipXPXMuPEuhV-43" edge="1">
                    <mxGeometry relative="1" as="geometry"/>
                </mxCell>
                <mxCell id="0wBqRTbNipXPXMuPEuhV-41" value="Yes" style="edgeLabel;html=1;align=center;verticalAlign=middle;resizable=0;points=[];" parent="0wBqRTbNipXPXMuPEuhV-40" vertex="1" connectable="0">
                    <mxGeometry x="-0.14" y="9" relative="1" as="geometry">
                        <mxPoint x="-9" as="offset"/>
                    </mxGeometry>
                </mxCell>
                <mxCell id="0wBqRTbNipXPXMuPEuhV-42" value="5????" style="rhombus;whiteSpace=wrap;html=1;shadow=0;fontFamily=Helvetica;fontSize=12;align=center;strokeWidth=1;spacing=6;spacingTop=-4;" parent="1" vertex="1">
                    <mxGeometry x="30" y="170" width="100" height="80" as="geometry"/>
                </mxCell>
                <mxCell id="0wBqRTbNipXPXMuPEuhV-43" value="&lt;div style=&quot;font-family: &amp;#34;consolas&amp;#34; , &amp;#34;courier new&amp;#34; , monospace ; font-size: 14px ; line-height: 19px&quot;&gt;????????5?????&lt;br&gt;&lt;/div&gt;" style="rounded=1;whiteSpace=wrap;html=1;fontSize=12;glass=0;strokeWidth=1;shadow=0;" parent="1" vertex="1">
                    <mxGeometry x="20" y="290" width="120" height="40" as="geometry"/>
                </mxCell>
                <mxCell id="0wBqRTbNipXPXMuPEuhV-44" value="??(x??)???" style="shape=parallelogram;perimeter=parallelogramPerimeter;whiteSpace=wrap;html=1;" parent="1" vertex="1">
                    <mxGeometry x="10" y="90" width="140" height="40" as="geometry"/>
                </mxCell>
                <mxCell id="0wBqRTbNipXPXMuPEuhV-45" value="" style="rounded=0;html=1;jettySize=auto;orthogonalLoop=1;fontSize=11;endArrow=block;endFill=0;endSize=8;strokeWidth=1;shadow=0;labelBackgroundColor=none;edgeStyle=orthogonalEdgeStyle;" parent="1" source="0wBqRTbNipXPXMuPEuhV-38" target="0wBqRTbNipXPXMuPEuhV-44" edge="1">
                    <mxGeometry relative="1" as="geometry">
                        <mxPoint x="80" y="60" as="sourcePoint"/>
                        <mxPoint x="80" y="170" as="targetPoint"/>
                    </mxGeometry>
                </mxCell>
                <mxCell id="0wBqRTbNipXPXMuPEuhV-46" value="" style="edgeStyle=none;rounded=0;orthogonalLoop=1;jettySize=auto;html=1;" parent="1" edge="1">
                    <mxGeometry relative="1" as="geometry">
                        <mxPoint x="235" y="330" as="targetPoint"/>
                        <mxPoint x="235" y="330" as="sourcePoint"/>
                    </mxGeometry>
                </mxCell>
                <mxCell id="0wBqRTbNipXPXMuPEuhV-52" value="&lt;div style=&quot;font-family: &amp;#34;consolas&amp;#34; , &amp;#34;courier new&amp;#34; , monospace ; font-size: 14px ; line-height: 19px&quot;&gt;&lt;span&gt;???????5?????&lt;/span&gt;&lt;/div&gt;" style="rounded=1;whiteSpace=wrap;html=1;" parent="1" vertex="1">
                    <mxGeometry x="179" y="190" width="101" height="40" as="geometry"/>
                </mxCell>
            </root>
        </mxGraphModel>
    </diagram>
</mxfile>